<?xml version="1.0" encoding="UTF-8" standalone="no"?>
<!DOCTYPE svg PUBLIC "-//W3C//DTD SVG 1.1//EN"
 "http://www.w3.org/Graphics/SVG/1.1/DTD/svg11.dtd">
<!-- Generated by graphviz version 14.1.2 (20260124.0452)
 -->
<!-- Title: Arsitektur Pages: 1 -->
<svg width="882pt" height="596pt"
 viewBox="0.00 0.00 882.00 596.00" xmlns="http://www.w3.org/2000/svg" xmlns:xlink="http://www.w3.org/1999/xlink">
<g id="graph0" class="graph" transform="scale(1 1) rotate(0) translate(17.28 578.87)">
<title>Arsitektur</title>
<polygon fill="white" stroke="none" points="-17.28,17.28 -17.28,-578.87 864.28,-578.87 864.28,17.28 -17.28,17.28"/>
<g id="clust1" class="cluster">
<title>cluster_backend</title>
<path fill="#f0f0f0" stroke="#333333" d="M20,-99.99C20,-99.99 491,-99.99 491,-99.99 497,-99.99 503,-105.99 503,-111.99 503,-111.99 503,-393.69 503,-393.69 503,-399.69 497,-405.69 491,-405.69 491,-405.69 20,-405.69 20,-405.69 14,-405.69 8,-399.69 8,-393.69 8,-393.69 8,-111.99 8,-111.99 8,-105.99 14,-99.99 20,-99.99"/>
<text xml:space="preserve" text-anchor="middle" x="255.5" y="-389.34" font-family="Arial" font-size="13.00">Backend Laravel 12 (PHP)</text>
</g>
<g id="clust5" class="cluster">
<title>cluster_external</title>
<path fill="#f0f0f0" stroke="#333333" d="M523,-309.24C523,-309.24 827,-309.24 827,-309.24 833,-309.24 839,-315.24 839,-321.24 839,-321.24 839,-388.24 839,-388.24 839,-394.24 833,-400.24 827,-400.24 827,-400.24 523,-400.24 523,-400.24 517,-400.24 511,-394.24 511,-388.24 511,-388.24 511,-321.24 511,-321.24 511,-315.24 517,-309.24 523,-309.24"/>
<text xml:space="preserve" text-anchor="middle" x="675" y="-383.89" font-family="Arial" font-size="13.00">Sistem Eksternal</text>
</g>
<!-- admin -->
<g id="node1" class="node">
<title>admin</title>
<text xml:space="preserve" text-anchor="middle" x="137" y="-538.74" font-family="Arial" font-size="13.00">Admin / Teknisi</text>
</g>
<!-- frontend -->
<g id="node2" class="node">
<title>frontend</title>
<path fill="#f7f7f7" stroke="#666666" d="M217.2,-466.59C217.2,-466.59 56.8,-466.59 56.8,-466.59 50.8,-466.59 44.8,-460.59 44.8,-454.59 44.8,-454.59 44.8,-435.69 44.8,-435.69 44.8,-429.69 50.8,-423.69 56.8,-423.69 56.8,-423.69 217.2,-423.69 217.2,-423.69 223.2,-423.69 229.2,-429.69 229.2,-435.69 229.2,-435.69 229.2,-454.59 229.2,-454.59 229.2,-460.59 223.2,-466.59 217.2,-466.59"/>
<text xml:space="preserve" text-anchor="middle" x="137" y="-447.99" font-family="Arial" font-size="12.00">Aplikasi Dashboard Monitoring</text>
<text xml:space="preserve" text-anchor="middle" x="137" y="-433.74" font-family="Arial" font-size="12.00">(Frontend &#45; Blade Laravel)</text>
</g>
<!-- admin&#45;&gt;frontend -->
<g id="edge4" class="edge">
<title>admin&#45;&gt;frontend</title>
<path fill="none" stroke="#333333" stroke-width="1.1" d="M137,-525.99C137,-525.99 137,-476.73 137,-476.73"/>
<polygon fill="#333333" stroke="#333333" stroke-width="1.1" points="139.8,-476.73 137,-468.73 134.2,-476.73 139.8,-476.73"/>
<text xml:space="preserve" text-anchor="middle" x="98" y="-503.86" font-family="Arial" font-size="10.00">Akses Dashboard</text>
</g>
<!-- api -->
<g id="node3" class="node">
<title>api</title>
<path fill="#f7f7f7" stroke="#666666" d="M213.2,-364.69C213.2,-364.69 60.8,-364.69 60.8,-364.69 54.8,-364.69 48.8,-358.69 48.8,-352.69 48.8,-352.69 48.8,-333.79 48.8,-333.79 48.8,-327.79 54.8,-321.79 60.8,-321.79 60.8,-321.79 213.2,-321.79 213.2,-321.79 219.2,-321.79 225.2,-327.79 225.2,-333.79 225.2,-333.79 225.2,-352.69 225.2,-352.69 225.2,-358.69 219.2,-364.69 213.2,-364.69"/>
<text xml:space="preserve" text-anchor="middle" x="137" y="-346.09" font-family="Arial" font-size="12.00">REST API</text>
<text xml:space="preserve" text-anchor="middle" x="137" y="-331.84" font-family="Arial" font-size="12.00">(JSON Request/Response)</text>
</g>
<!-- frontend&#45;&gt;api -->
<g id="edge5" class="edge">
<title>frontend:s&#45;&gt;api:n</title>
<path fill="none" stroke="#333333" stroke-width="1.1" d="M166.4,-423.69C166.4,-423.69 166.4,-374.35 166.4,-374.35"/>
<polygon fill="#333333" stroke="#333333" stroke-width="1.1" points="169.2,-374.35 166.4,-366.35 163.6,-374.35 169.2,-374.35"/>
<text xml:space="preserve" text-anchor="middle" x="123.27" y="-413.52" font-family="Arial" font-size="10.00">HTTP Request</text>
<text xml:space="preserve" text-anchor="middle" x="123.27" y="-401.52" font-family="Arial" font-size="10.00">(GET/POST JSON)</text>
</g>
<!-- logsvc -->
<g id="node4" class="node">
<title>logsvc</title>
<path fill="#f7f7f7" stroke="#666666" d="M472.8,-364.69C472.8,-364.69 277.2,-364.69 277.2,-364.69 271.2,-364.69 265.2,-358.69 265.2,-352.69 265.2,-352.69 265.2,-333.79 265.2,-333.79 265.2,-327.79 271.2,-321.79 277.2,-321.79 277.2,-321.79 472.8,-321.79 472.8,-321.79 478.8,-321.79 484.8,-327.79 484.8,-333.79 484.8,-333.79 484.8,-352.69 484.8,-352.69 484.8,-358.69 478.8,-364.69 472.8,-364.69"/>
<text xml:space="preserve" text-anchor="middle" x="375" y="-346.09" font-family="Arial" font-size="12.00">Log Activity Service</text>
<text xml:space="preserve" text-anchor="middle" x="375" y="-331.84" font-family="Arial" font-size="12.00">(Pencatatan Aktivitas User)</text>
</g>
<!-- frontend&#45;&gt;logsvc -->
<!-- api&#45;&gt;frontend -->
<g id="edge6" class="edge">
<title>api:nw&#45;&gt;frontend:sw</title>
<path fill="none" stroke="#333333" stroke-width="1.1" d="M107.6,-364.69C107.6,-364.69 107.6,-414.02 107.6,-414.02"/>
<polygon fill="#333333" stroke="#333333" stroke-width="1.1" points="104.8,-414.02 107.6,-422.02 110.4,-414.02 104.8,-414.02"/>
<text xml:space="preserve" text-anchor="middle" x="70.47" y="-379.86" font-family="Arial" font-size="10.00">JSON Response</text>
<text xml:space="preserve" text-anchor="middle" x="70.47" y="-367.86" font-family="Arial" font-size="10.00">(Data)</text>
</g>
<!-- api&#45;&gt;logsvc -->
<g id="edge1" class="edge">
<title>api:e&#45;&gt;logsvc:w</title>
<path fill="none" stroke="#333333" stroke-width="1.1" d="M225.2,-350C225.2,-350 255.54,-350 255.54,-350"/>
<polygon fill="#333333" stroke="#333333" stroke-width="1.1" points="255.54,-352.8 263.54,-350 255.54,-347.2 255.54,-352.8"/>
<text xml:space="preserve" text-anchor="middle" x="218.24" y="-340.5" font-family="Arial" font-size="10.00">Catat Aktivitas User</text>
</g>
<!-- rms -->
<g id="node5" class="node">
<title>rms</title>
<path fill="#f7f7f7" stroke="#666666" d="M220.4,-262.79C220.4,-262.79 53.6,-262.79 53.6,-262.79 47.6,-262.79 41.6,-256.79 41.6,-250.79 41.6,-250.79 41.6,-231.89 41.6,-231.89 41.6,-225.89 47.6,-219.89 53.6,-219.89 53.6,-219.89 220.4,-219.89 220.4,-219.89 226.4,-219.89 232.4,-225.89 232.4,-231.89 232.4,-231.89 232.4,-250.79 232.4,-250.79 232.4,-256.79 226.4,-262.79 220.4,-262.79"/>
<text xml:space="preserve" text-anchor="middle" x="137" y="-244.19" font-family="Arial" font-size="12.00">RMS/FFT Engine</text>
<text xml:space="preserve" text-anchor="middle" x="137" y="-229.94" font-family="Arial" font-size="12.00">(Pengolahan Data Getaran)</text>
</g>
<!-- api&#45;&gt;rms -->
<g id="edge2" class="edge">
<title>api:s&#45;&gt;rms:n</title>
<path fill="none" stroke="#333333" stroke-width="1.1" d="M92.9,-321.79C92.9,-321.79 92.9,-272.45 92.9,-272.45"/>
<polygon fill="#333333" stroke="#333333" stroke-width="1.1" points="95.7,-272.45 92.9,-264.45 90.1,-272.45 95.7,-272.45"/>
<text xml:space="preserve" text-anchor="middle" x="52.02" y="-299.62" font-family="Arial" font-size="10.00">Kirim Data Mentah</text>
</g>
<!-- iot -->
<g id="node7" class="node">
<title>iot</title>
<path fill="#f7f7f7" stroke="#666666" d="M811.08,-361.24C811.08,-361.24 538.92,-361.24 538.92,-361.24 532.92,-361.24 526.92,-355.24 526.92,-349.24 526.92,-349.24 526.92,-337.24 526.92,-337.24 526.92,-331.24 532.92,-325.24 538.92,-325.24 538.92,-325.24 811.08,-325.24 811.08,-325.24 817.08,-325.24 823.08,-331.24 823.08,-337.24 823.08,-337.24 823.08,-349.24 823.08,-349.24 823.08,-355.24 817.08,-361.24 811.08,-361.24"/>
<text xml:space="preserve" text-anchor="middle" x="675" y="-338.96" font-family="Arial" font-size="12.00">Sensor IoT (ESP32 &#45; Getaran &amp; Suhu, Data Mentah)</text>
</g>
<!-- api&#45;&gt;iot -->
<g id="edge8" class="edge">
<title>api:ne&#45;&gt;iot:nw</title>
<path fill="none" stroke="#333333" stroke-width="1.1" d="M137,-364.69C137,-364.69 137,-282 137,-282 137,-282 724.36,-282 724.36,-282 724.36,-282 724.36,-351.57 724.36,-351.57"/>
<polygon fill="#333333" stroke="#333333" stroke-width="1.1" points="721.56,-351.57 724.36,-359.57 727.16,-351.57 721.56,-351.57"/>
<text xml:space="preserve" text-anchor="middle" x="711.21" y="-336.77" font-family="Arial" font-size="10.00">HTTP Response</text>
<text xml:space="preserve" text-anchor="middle" x="711.21" y="-324.77" font-family="Arial" font-size="10.00">(200 OK)</text>
</g>
<!-- db -->
<g id="node8" class="node">
<title>db</title>
<path fill="#f7f7f7" stroke="#666666" d="M466.95,-53.62C466.95,-56.58 419.91,-58.99 362,-58.99 304.09,-58.99 257.05,-56.58 257.05,-53.62 257.05,-53.62 257.05,-5.36 257.05,-5.36 257.05,-2.4 304.09,0 362,0 419.91,0 466.95,-2.4 466.95,-5.36 466.95,-5.36 466.95,-53.62 466.95,-53.62"/>
<path fill="none" stroke="#666666" d="M466.95,-53.62C466.95,-50.67 419.91,-48.26 362,-48.26 304.09,-48.26 257.05,-50.67 257.05,-53.62"/>
<text xml:space="preserve" text-anchor="middle" x="362" y="-32.34" font-family="Arial" font-size="12.00">Database Internal (MySQL)</text>
<text xml:space="preserve" text-anchor="middle" x="362" y="-18.09" font-family="Arial" font-size="12.00">(User, Sensor, RMS/FFT, Alert, Log)</text>
</g>
<!-- api&#45;&gt;db -->
<g id="edge9" class="edge">
<title>api:s&#45;&gt;db:nw</title>
<path fill="none" stroke="#333333" stroke-width="1.1" d="M137,-336C137,-336 263.16,-336 263.16,-336 263.16,-336 263.16,-69.01 263.16,-69.01"/>
<polygon fill="#333333" stroke="#333333" stroke-width="1.1" points="265.96,-69.01 263.16,-61.01 260.36,-69.01 265.96,-69.01"/>
<text xml:space="preserve" text-anchor="middle" x="254.71" y="-79.98" font-family="Arial" font-size="10.00">Simpan Data Sensor</text>
<text xml:space="preserve" text-anchor="middle" x="254.71" y="-67.98" font-family="Arial" font-size="10.00">(Data Mentah)</text>
</g>
<!-- logsvc&#45;&gt;iot -->
<!-- logsvc&#45;&gt;db -->
<g id="edge12" class="edge">
<title>logsvc:s&#45;&gt;db:ne</title>
<path fill="none" stroke="#333333" stroke-width="1.1" d="M366.08,-321.79C366.08,-321.79 366.08,-69.01 366.08,-69.01"/>
<polygon fill="#333333" stroke="#333333" stroke-width="1.1" points="368.88,-69.01 366.08,-61.01 363.28,-69.01 368.88,-69.01"/>
<text xml:space="preserve" text-anchor="middle" x="357.63" y="-73.98" font-family="Arial" font-size="10.00">Simpan Log Aktivitas User</text>
</g>
<!-- alert -->
<g id="node6" class="node">
<title>alert</title>
<path fill="#f7f7f7" stroke="#666666" d="M236.33,-160.89C236.33,-160.89 37.67,-160.89 37.67,-160.89 31.67,-160.89 25.67,-154.89 25.67,-148.89 25.67,-148.89 25.67,-129.99 25.67,-129.99 25.67,-123.99 31.67,-117.99 37.67,-117.99 37.67,-117.99 236.33,-117.99 236.33,-117.99 242.33,-117.99 248.33,-123.99 248.33,-129.99 248.33,-129.99 248.33,-148.89 248.33,-148.89 248.33,-154.89 242.33,-160.89 236.33,-160.89"/>
<text xml:space="preserve" text-anchor="middle" x="137" y="-142.29" font-family="Arial" font-size="12.00">Alert Processor</text>
<text xml:space="preserve" text-anchor="middle" x="137" y="-128.04" font-family="Arial" font-size="12.00">(Evaluasi Threshold &amp; Generate Alert)</text>
</g>
<!-- rms&#45;&gt;alert -->
<g id="edge3" class="edge">
<title>rms:s&#45;&gt;alert:n</title>
<path fill="none" stroke="#333333" stroke-width="1.1" d="M137,-219.89C137,-219.89 137,-170.55 137,-170.55"/>
<polygon fill="#333333" stroke="#333333" stroke-width="1.1" points="139.8,-170.55 137,-162.55 134.2,-170.55 139.8,-170.55"/>
<text xml:space="preserve" text-anchor="middle" x="102.5" y="-197.72" font-family="Arial" font-size="10.00">Kirim RMS/FFT</text>
</g>
<!-- rms&#45;&gt;db -->
<g id="edge10" class="edge">
<title>rms:s&#45;&gt;db:n</title>
<path fill="none" stroke="#333333" stroke-width="1.1" d="M137,-241C137,-241 261.12,-241 261.12,-241 261.12,-241 261.12,-69.01 261.12,-69.01"/>
<polygon fill="#333333" stroke="#333333" stroke-width="1.1" points="263.92,-69.01 261.12,-61.01 258.32,-69.01 263.92,-69.01"/>
<text xml:space="preserve" text-anchor="middle" x="252.67" y="-79.98" font-family="Arial" font-size="10.00">Simpan Data Sensor</text>
<text xml:space="preserve" text-anchor="middle" x="252.67" y="-67.98" font-family="Arial" font-size="10.00">(RMS &amp; FFT)</text>
</g>
<!-- alert&#45;&gt;db -->
<g id="edge11" class="edge">
<title>alert:s&#45;&gt;db:n</title>
<path fill="none" stroke="#333333" stroke-width="1.1" d="M137,-139C137,-139 259.08,-139 259.08,-139 259.08,-139 259.08,-69.01 259.08,-69.01"/>
<polygon fill="#333333" stroke="#333333" stroke-width="1.1" points="261.88,-69.01 259.08,-61.01 256.28,-69.01 261.88,-69.01"/>
<text xml:space="preserve" text-anchor="middle" x="250.63" y="-73.98" font-family="Arial" font-size="10.00">Simpan Alert</text>
</g>
<!-- iot&#45;&gt;api -->
<g id="edge7" class="edge">
<title>iot:sw&#45;&gt;api:se</title>
<path fill="none" stroke="#333333" stroke-width="1.1" d="M625.64,-325.24C625.64,-325.24 625.64,-302 625.64,-302 625.64,-302 181.1,-302 181.1,-302 181.1,-302 181.1,-312.12 181.1,-312.12"/>
<polygon fill="#333333" stroke="#333333" stroke-width="1.1" points="178.3,-312.12 181.1,-320.12 183.9,-312.12 178.3,-312.12"/>
<text xml:space="preserve" text-anchor="middle" x="638.79" y="-300.77" font-family="Arial" font-size="10.00">HTTP POST JSON</text>
<text xml:space="preserve" text-anchor="middle" x="638.79" y="-288.77" font-family="Arial" font-size="10.00">(Data Mentah)</text>
</g>
</g>
</svg>
